<svg width="164" height="34" viewBox="0 0 164 34" fill="none" xmlns="http://www.w3.org/2000/svg">
<path d="M18.568 25.564C19.3013 26.0627 19.668 26.8693 19.668 27.984C19.668 29.0693 19.3893 29.964 18.832 30.668C18.2747 31.372 17.5413 31.9587 16.632 32.428C14.7547 33.396 12.804 33.88 10.78 33.88C8.756 33.88 7.14267 33.66 5.94 33.22C4.76667 32.78 3.784 32.1493 2.992 31.328C1.43733 29.7733 0.66 27.5733 0.66 24.728C0.66 20.2987 1.86267 16.7347 4.268 14.036C6.84933 11.132 10.384 9.68 14.872 9.68C17.6587 9.68 19.7413 10.2667 21.12 11.44C22.1467 12.32 22.66 13.4787 22.66 14.916C22.66 20.0787 18.2013 22.66 9.284 22.66C9.16667 23.4227 9.108 24.1267 9.108 24.772C9.108 26.1213 9.40133 27.06 9.988 27.588C10.604 28.0867 11.4693 28.336 12.584 28.336C13.6987 28.336 14.8427 28.0867 16.016 27.588C17.2187 27.06 18.0693 26.3853 18.568 25.564ZM9.592 20.768C11.6747 20.768 13.3173 20.1227 14.52 18.832C15.7227 17.6 16.324 16.0013 16.324 14.036C16.324 13.3613 16.192 12.848 15.928 12.496C15.6933 12.1147 15.3267 11.924 14.828 11.924C14.3293 11.924 13.86 12.0267 13.42 12.232C13.0093 12.408 12.584 12.8187 12.144 13.464C11.0587 14.9307 10.208 17.3653 9.592 20.768ZM25.794 25.872C24.8553 25.1973 24.386 24.2147 24.386 22.924C24.386 22.22 24.562 21.5893 24.914 21.032C25.266 20.4453 25.794 20.108 26.498 20.02H35.166C36.134 20.02 36.7646 19.7267 37.058 19.14C37.5273 19.404 37.8646 19.8147 38.07 20.372C38.2753 20.9293 38.378 21.5013 38.378 22.088C38.378 22.6747 38.1433 23.2613 37.674 23.848C37.234 24.4053 36.6766 24.7133 36.002 24.772H27.95C27.334 24.772 26.8793 24.8747 26.586 25.08C26.2926 25.256 26.0286 25.52 25.794 25.872ZM63.0004 14.696C63.0004 15.928 62.4871 16.9253 61.4604 17.688C60.4338 18.4507 59.0844 18.832 57.4124 18.832C56.7084 18.832 56.1511 18.7293 55.7404 18.524C56.0631 17.7613 56.2684 16.9107 56.3564 15.972C56.4738 15.004 56.5324 14.388 56.5324 14.124C56.5324 12.892 56.1071 12.276 55.2564 12.276C54.6698 12.276 54.0391 12.6427 53.3644 13.376C52.7191 14.1093 52.1178 15.048 51.5604 16.192C50.3284 18.832 49.7124 21.4867 49.7124 24.156C49.7124 25.6227 49.9911 26.6933 50.5484 27.368C51.1058 28.0133 52.0004 28.336 53.2324 28.336C54.9338 28.336 56.4591 27.632 57.8084 26.224C58.1898 25.784 58.4831 25.3147 58.6884 24.816C59.8031 25.4027 60.3604 26.5027 60.3604 28.116C60.3604 29.7587 59.4511 31.1227 57.6324 32.208C55.7551 33.3227 53.3204 33.88 50.3284 33.88C44.3738 33.88 41.3964 30.7267 41.3964 24.42C41.3964 19.8147 42.7018 16.192 45.3124 13.552C47.8351 10.9707 51.4138 9.68 56.0484 9.68C60.6831 9.68 63.0004 11.352 63.0004 14.696ZM77.9419 20.636C78.9979 18.7587 79.5259 16.8667 79.5259 14.96C79.5259 13.6987 79.0712 13.068 78.1619 13.068C77.4579 13.068 76.7392 13.6693 76.0059 14.872C75.2432 16.0747 74.7445 17.4533 74.5099 19.008L72.2219 33L63.1139 33.88L67.6019 10.56L74.8619 9.68L74.0699 14.124C75.5072 11.1613 77.8392 9.68 81.0659 9.68C82.7672 9.68 84.0725 10.12 84.9819 11C85.9205 11.88 86.3899 13.2293 86.3899 15.048C86.3899 16.8373 85.7885 18.304 84.5859 19.448C83.4125 20.592 81.8139 21.164 79.7899 21.164C78.9099 21.164 78.2939 20.988 77.9419 20.636ZM97.6752 30.58C96.7659 32.78 94.8592 33.88 91.9552 33.88C90.4592 33.88 89.2419 33.3667 88.3032 32.34C87.5112 31.4307 87.1152 30.5213 87.1152 29.612C87.1152 27.236 87.6579 23.7307 88.7432 19.096L90.3712 10.56L99.3032 9.68L96.6192 23.584C96.1205 25.7547 95.8712 27.2213 95.8712 27.984C95.8712 29.656 96.4725 30.5213 97.6752 30.58ZM91.1632 4.444C91.1632 3.3 91.6325 2.42 92.5712 1.804C93.5392 1.188 94.7125 0.879999 96.0912 0.879999C97.4699 0.879999 98.5699 1.188 99.3912 1.804C100.242 2.42 100.667 3.3 100.667 4.444C100.667 5.588 100.198 6.45333 99.2592 7.04C98.3499 7.62666 97.2059 7.92 95.8272 7.92C94.4485 7.92 93.3192 7.62666 92.4392 7.04C91.5885 6.45333 91.1632 5.588 91.1632 4.444ZM133.104 33.88C129.554 33.88 127.78 32.5013 127.78 29.744C127.78 28.5413 128.029 26.7813 128.528 24.464C129.056 22.1173 129.408 20.4747 129.584 19.536C129.994 17.3947 130.2 15.9867 130.2 15.312C130.2 13.816 129.642 13.068 128.528 13.068C127.794 13.068 127.076 13.5813 126.372 14.608C125.668 15.6053 125.154 17.116 124.832 19.14L122.104 33L113.524 33.88L115.9 21.912C116.164 20.592 116.413 19.184 116.648 17.688C116.882 16.192 117 15.3267 117 15.092C117 13.7427 116.501 13.068 115.504 13.068C114.829 13.068 114.125 13.5667 113.392 14.564C112.658 15.5613 112.086 17.0867 111.676 19.14L108.992 33L100.324 33.88L104.944 10.56L112.116 9.68L111.368 14.124C112.13 12.54 113.216 11.4107 114.624 10.736C116.032 10.032 117.836 9.68 120.036 9.68C121.297 9.68 122.338 9.988 123.16 10.604C123.981 11.22 124.524 12.0267 124.788 13.024C125.286 11.9973 126.166 11.1907 127.428 10.604C128.718 9.988 130.141 9.68 131.696 9.68C133.28 9.68 134.453 9.856 135.216 10.208C136.008 10.5307 136.638 10.9707 137.108 11.528C137.9 12.5547 138.296 14.0067 138.296 15.884C138.296 17.732 137.9 20.5773 137.108 24.42C136.697 26.2973 136.492 27.588 136.492 28.292C136.492 28.9667 136.682 29.5093 137.064 29.92C137.474 30.3307 137.973 30.5653 138.56 30.624C138.266 31.6213 137.606 32.4133 136.58 33C135.582 33.5867 134.424 33.88 133.104 33.88ZM159.763 25.564C160.497 26.0627 160.863 26.8693 160.863 27.984C160.863 29.0693 160.585 29.964 160.027 30.668C159.47 31.372 158.737 31.9587 157.827 32.428C155.95 33.396 153.999 33.88 151.975 33.88C149.951 33.88 148.338 33.66 147.135 33.22C145.962 32.78 144.979 32.1493 144.187 31.328C142.633 29.7733 141.855 27.5733 141.855 24.728C141.855 20.2987 143.058 16.7347 145.463 14.036C148.045 11.132 151.579 9.68 156.067 9.68C158.854 9.68 160.937 10.2667 162.315 11.44C163.342 12.32 163.855 13.4787 163.855 14.916C163.855 20.0787 159.397 22.66 150.479 22.66C150.362 23.4227 150.303 24.1267 150.303 24.772C150.303 26.1213 150.597 27.06 151.183 27.588C151.799 28.0867 152.665 28.336 153.779 28.336C154.894 28.336 156.038 28.0867 157.211 27.588C158.414 27.06 159.265 26.3853 159.763 25.564ZM150.787 20.768C152.87 20.768 154.513 20.1227 155.715 18.832C156.918 17.6 157.519 16.0013 157.519 14.036C157.519 13.3613 157.387 12.848 157.123 12.496C156.889 12.1147 156.522 11.924 156.023 11.924C155.525 11.924 155.055 12.0267 154.615 12.232C154.205 12.408 153.779 12.8187 153.339 13.464C152.254 14.9307 151.403 17.3653 150.787 20.768Z" fill="white"/>
</svg>
